<svg xmlns="http://www.w3.org/2000/svg" xmlns:xlink="http://www.w3.org/1999/xlink" width="1000" zoomAndPan="magnify" viewBox="0 0 750 749.999995" height="1000" preserveAspectRatio="xMidYMid meet" version="1.0"><defs><clipPath id="ec6ce507fc"><path d="M 38.492188 72.144531 L 711 72.144531 L 711 678 L 38.492188 678 Z M 38.492188 72.144531 " clip-rule="nonzero"/></clipPath></defs><g clip-path="url(#ec6ce507fc)"><path fill="#fdb801" d="M 287.011719 72.75 C 285.910156 72.75 284.8125 72.804688 283.71875 72.910156 C 282.625 73.019531 281.535156 73.179688 280.457031 73.394531 C 279.378906 73.609375 278.3125 73.875 277.261719 74.195312 C 276.207031 74.515625 275.175781 74.882812 274.15625 75.304688 C 273.140625 75.726562 272.148438 76.195312 271.179688 76.714844 C 270.207031 77.234375 269.265625 77.796875 268.351562 78.410156 C 267.4375 79.019531 266.554688 79.675781 265.703125 80.371094 C 264.855469 81.070312 264.039062 81.808594 263.261719 82.585938 C 262.484375 83.363281 261.746094 84.175781 261.050781 85.027344 C 260.351562 85.878906 259.699219 86.761719 259.085938 87.675781 C 258.476562 88.589844 257.910156 89.53125 257.390625 90.5 C 256.875 91.472656 256.402344 92.464844 255.984375 93.480469 C 255.5625 94.496094 255.191406 95.53125 254.871094 96.582031 C 254.554688 97.636719 254.285156 98.703125 254.070312 99.78125 C 253.855469 100.859375 253.695312 101.945312 253.589844 103.039062 C 253.480469 104.136719 253.425781 105.230469 253.425781 106.332031 C 253.425781 107.433594 253.480469 108.53125 253.589844 109.625 C 253.695312 110.71875 253.855469 111.804688 254.070312 112.882812 C 254.285156 113.960938 254.554688 115.027344 254.871094 116.082031 C 255.191406 117.132812 255.5625 118.167969 255.984375 119.183594 C 256.402344 120.199219 256.875 121.191406 257.390625 122.164062 C 257.910156 123.132812 258.476562 124.074219 259.085938 124.988281 C 259.699219 125.90625 260.351562 126.785156 261.050781 127.636719 C 261.746094 128.488281 262.484375 129.300781 263.261719 130.078125 C 264.039062 130.855469 264.855469 131.59375 265.703125 132.292969 C 266.554688 132.988281 267.4375 133.644531 268.351562 134.253906 C 269.265625 134.867188 270.207031 135.429688 271.179688 135.949219 C 272.148438 136.46875 273.140625 136.9375 274.15625 137.359375 C 275.175781 137.78125 276.207031 138.148438 277.261719 138.46875 C 278.3125 138.789062 279.378906 139.054688 280.457031 139.269531 C 281.535156 139.484375 282.625 139.644531 283.71875 139.753906 C 284.8125 139.863281 285.910156 139.914062 287.011719 139.914062 C 288.109375 139.914062 289.207031 139.863281 290.300781 139.753906 C 291.394531 139.644531 292.484375 139.484375 293.5625 139.269531 C 294.640625 139.054688 295.707031 138.789062 296.757812 138.46875 C 297.8125 138.148438 298.84375 137.78125 299.863281 137.359375 C 300.878906 136.9375 301.871094 136.46875 302.839844 135.949219 C 303.8125 135.429688 304.753906 134.867188 305.667969 134.253906 C 306.582031 133.644531 307.464844 132.988281 308.316406 132.292969 C 309.164062 131.59375 309.980469 130.855469 310.757812 130.078125 C 311.535156 129.300781 312.273438 128.488281 312.96875 127.636719 C 313.667969 126.785156 314.320312 125.90625 314.933594 124.988281 C 315.542969 124.074219 316.109375 123.132812 316.628906 122.164062 C 317.144531 121.191406 317.617188 120.199219 318.035156 119.183594 C 318.457031 118.167969 318.828125 117.132812 319.148438 116.082031 C 319.464844 115.027344 319.734375 113.960938 319.949219 112.882812 C 320.164062 111.804688 320.324219 110.71875 320.429688 109.625 C 320.539062 108.53125 320.59375 107.433594 320.59375 106.332031 C 320.59375 105.230469 320.539062 104.136719 320.429688 103.039062 C 320.324219 101.945312 320.164062 100.859375 319.949219 99.78125 C 319.734375 98.703125 319.464844 97.636719 319.148438 96.582031 C 318.828125 95.53125 318.457031 94.496094 318.035156 93.480469 C 317.617188 92.464844 317.144531 91.472656 316.628906 90.5 C 316.109375 89.53125 315.542969 88.589844 314.933594 87.675781 C 314.320312 86.761719 313.667969 85.878906 312.96875 85.027344 C 312.273438 84.175781 311.535156 83.363281 310.757812 82.585938 C 309.980469 81.808594 309.164062 81.070312 308.316406 80.371094 C 307.464844 79.675781 306.582031 79.019531 305.667969 78.410156 C 304.753906 77.796875 303.8125 77.234375 302.839844 76.714844 C 301.871094 76.195312 300.878906 75.726562 299.863281 75.304688 C 298.84375 74.882812 297.8125 74.515625 296.757812 74.195312 C 295.707031 73.875 294.640625 73.609375 293.5625 73.394531 C 292.484375 73.179688 291.394531 73.019531 290.300781 72.910156 C 289.207031 72.804688 288.109375 72.75 287.011719 72.75 Z M 461.640625 72.75 C 460.542969 72.75 459.445312 72.804688 458.351562 72.910156 C 457.257812 73.019531 456.167969 73.179688 455.089844 73.394531 C 454.011719 73.609375 452.945312 73.875 451.894531 74.195312 C 450.839844 74.515625 449.808594 74.882812 448.789062 75.304688 C 447.773438 75.726562 446.78125 76.195312 445.8125 76.714844 C 444.839844 77.234375 443.898438 77.796875 442.984375 78.410156 C 442.070312 79.019531 441.1875 79.675781 440.335938 80.371094 C 439.488281 81.070312 438.671875 81.808594 437.894531 82.585938 C 437.117188 83.363281 436.378906 84.175781 435.683594 85.027344 C 434.984375 85.878906 434.332031 86.761719 433.71875 87.675781 C 433.109375 88.589844 432.542969 89.53125 432.023438 90.5 C 431.507812 91.472656 431.035156 92.464844 430.617188 93.480469 C 430.195312 94.496094 429.824219 95.53125 429.503906 96.582031 C 429.1875 97.636719 428.917969 98.703125 428.703125 99.78125 C 428.488281 100.859375 428.328125 101.945312 428.222656 103.039062 C 428.113281 104.136719 428.058594 105.230469 428.058594 106.332031 C 428.058594 107.433594 428.113281 108.53125 428.222656 109.625 C 428.328125 110.71875 428.488281 111.804688 428.703125 112.882812 C 428.917969 113.960938 429.1875 115.027344 429.503906 116.082031 C 429.824219 117.132812 430.195312 118.167969 430.617188 119.183594 C 431.035156 120.199219 431.507812 121.191406 432.023438 122.164062 C 432.542969 123.132812 433.109375 124.074219 433.71875 124.988281 C 434.332031 125.90625 434.984375 126.785156 435.683594 127.636719 C 436.378906 128.488281 437.117188 129.300781 437.894531 130.078125 C 438.671875 130.855469 439.488281 131.59375 440.335938 132.292969 C 441.1875 132.988281 442.070312 133.644531 442.984375 134.253906 C 443.898438 134.867188 444.839844 135.429688 445.8125 135.949219 C 446.78125 136.46875 447.773438 136.9375 448.789062 137.359375 C 449.808594 137.78125 450.839844 138.148438 451.894531 138.46875 C 452.945312 138.789062 454.011719 139.054688 455.089844 139.269531 C 456.167969 139.484375 457.257812 139.644531 458.351562 139.753906 C 459.445312 139.863281 460.542969 139.914062 461.640625 139.914062 C 462.742188 139.914062 463.839844 139.863281 464.933594 139.753906 C 466.027344 139.644531 467.117188 139.484375 468.195312 139.269531 C 469.273438 139.054688 470.339844 138.789062 471.390625 138.46875 C 472.445312 138.148438 473.476562 137.78125 474.496094 137.359375 C 475.511719 136.9375 476.503906 136.46875 477.472656 135.949219 C 478.445312 135.429688 479.386719 134.867188 480.300781 134.253906 C 481.214844 133.644531 482.097656 132.988281 482.949219 132.292969 C 483.796875 131.59375 484.613281 130.855469 485.390625 130.078125 C 486.167969 129.300781 486.90625 128.488281 487.601562 127.636719 C 488.300781 126.785156 488.953125 125.90625 489.566406 124.988281 C 490.175781 124.074219 490.742188 123.132812 491.261719 122.164062 C 491.777344 121.191406 492.25 120.199219 492.667969 119.183594 C 493.089844 118.167969 493.460938 117.132812 493.78125 116.082031 C 494.097656 115.027344 494.367188 113.960938 494.582031 112.882812 C 494.796875 111.804688 494.957031 110.71875 495.0625 109.625 C 495.171875 108.53125 495.226562 107.433594 495.226562 106.332031 C 495.226562 105.230469 495.171875 104.136719 495.0625 103.039062 C 494.957031 101.945312 494.796875 100.859375 494.582031 99.78125 C 494.367188 98.703125 494.097656 97.636719 493.78125 96.582031 C 493.460938 95.53125 493.089844 94.496094 492.667969 93.480469 C 492.25 92.464844 491.777344 91.472656 491.261719 90.5 C 490.742188 89.53125 490.175781 88.589844 489.566406 87.675781 C 488.953125 86.761719 488.300781 85.878906 487.601562 85.027344 C 486.90625 84.175781 486.167969 83.363281 485.390625 82.585938 C 484.613281 81.808594 483.796875 81.070312 482.949219 80.371094 C 482.097656 79.675781 481.214844 79.019531 480.300781 78.410156 C 479.386719 77.796875 478.445312 77.234375 477.472656 76.714844 C 476.503906 76.195312 475.511719 75.726562 474.496094 75.304688 C 473.476562 74.882812 472.445312 74.515625 471.390625 74.195312 C 470.339844 73.875 469.273438 73.609375 468.195312 73.394531 C 467.117188 73.179688 466.027344 73.019531 464.933594 72.910156 C 463.839844 72.804688 462.742188 72.75 461.640625 72.75 Z M 495.566406 193.28125 C 494.433594 193.273438 493.320312 193.40625 492.222656 193.683594 C 491.125 193.957031 490.078125 194.363281 489.082031 194.902344 C 488.085938 195.441406 487.171875 196.09375 486.34375 196.863281 C 485.511719 197.632812 484.792969 198.496094 484.179688 199.445312 C 484.179688 199.445312 440.632812 260.816406 374.328125 260.816406 C 308.019531 260.816406 264.472656 199.445312 264.472656 199.445312 C 263.84375 198.511719 263.113281 197.667969 262.273438 196.914062 C 261.433594 196.164062 260.511719 195.527344 259.515625 195.007812 C 258.515625 194.488281 257.464844 194.097656 256.367188 193.839844 C 255.273438 193.585938 254.160156 193.46875 253.03125 193.492188 C 251.8125 193.519531 250.617188 193.707031 249.449219 194.058594 C 248.277344 194.410156 247.179688 194.914062 246.144531 195.566406 C 245.113281 196.21875 244.1875 196.996094 243.367188 197.902344 C 242.546875 198.808594 241.863281 199.804688 241.316406 200.898438 C 240.769531 201.988281 240.375 203.132812 240.140625 204.332031 C 239.90625 205.53125 239.835938 206.738281 239.929688 207.953125 C 240.023438 209.171875 240.277344 210.355469 240.695312 211.503906 C 241.109375 212.652344 241.671875 213.722656 242.378906 214.71875 C 242.378906 214.71875 291.847656 287.683594 374.328125 287.683594 C 456.804688 287.683594 506.273438 214.71875 506.273438 214.71875 C 507.011719 213.71875 507.601562 212.640625 508.039062 211.480469 C 508.480469 210.320312 508.753906 209.125 508.863281 207.886719 C 508.972656 206.652344 508.910156 205.425781 508.675781 204.207031 C 508.445312 202.988281 508.054688 201.824219 507.5 200.714844 C 506.945312 199.605469 506.25 198.589844 505.414062 197.671875 C 504.578125 196.753906 503.636719 195.96875 502.582031 195.3125 C 501.527344 194.65625 500.40625 194.15625 499.214844 193.8125 C 498.023438 193.464844 496.808594 193.289062 495.566406 193.28125 Z M 199.902344 231.035156 C 198.226562 231.039062 196.609375 231.347656 195.050781 231.953125 L 114.449219 261.65625 C 113.453125 261.976562 112.507812 262.40625 111.609375 262.945312 C 110.714844 263.488281 109.894531 264.125 109.144531 264.859375 C 108.398438 265.59375 107.746094 266.402344 107.1875 267.289062 C 106.628906 268.175781 106.183594 269.113281 105.84375 270.101562 L 40.539062 374.605469 C 40.277344 375.027344 40.039062 375.460938 39.824219 375.910156 C 39.609375 376.359375 39.421875 376.816406 39.257812 377.285156 C 39.09375 377.753906 38.957031 378.230469 38.847656 378.714844 C 38.734375 379.199219 38.652344 379.691406 38.59375 380.183594 C 38.539062 380.675781 38.511719 381.171875 38.507812 381.667969 C 38.507812 382.167969 38.535156 382.664062 38.585938 383.15625 C 38.640625 383.648438 38.722656 384.140625 38.828125 384.625 C 38.9375 385.109375 39.070312 385.585938 39.234375 386.058594 C 39.394531 386.527344 39.578125 386.988281 39.792969 387.4375 C 40.003906 387.886719 40.238281 388.324219 40.5 388.746094 C 40.761719 389.167969 41.042969 389.578125 41.347656 389.96875 C 41.65625 390.359375 41.980469 390.734375 42.328125 391.089844 C 42.675781 391.445312 43.039062 391.78125 43.425781 392.097656 C 43.808594 392.410156 44.210938 392.703125 44.625 392.976562 C 45.042969 393.246094 45.472656 393.492188 45.917969 393.714844 C 46.363281 393.9375 46.816406 394.136719 47.285156 394.308594 L 105.660156 415.824219 L 105.660156 569.78125 C 105.660156 570.464844 105.714844 571.140625 105.816406 571.816406 C 105.921875 572.492188 106.074219 573.152344 106.28125 573.804688 C 106.484375 574.457031 106.738281 575.085938 107.039062 575.699219 C 107.339844 576.3125 107.6875 576.898438 108.078125 577.457031 C 108.46875 578.015625 108.898438 578.542969 109.371094 579.039062 C 109.839844 579.53125 110.347656 579.988281 110.886719 580.402344 C 111.425781 580.820312 111.996094 581.195312 112.59375 581.523438 C 113.191406 581.855469 113.808594 582.136719 114.449219 582.375 L 369.683594 676.40625 C 371.179688 676.960938 372.730469 677.234375 374.328125 677.234375 C 375.921875 677.234375 377.472656 676.960938 378.96875 676.40625 L 634.203125 582.375 C 634.84375 582.136719 635.460938 581.855469 636.058594 581.523438 C 636.65625 581.195312 637.226562 580.820312 637.765625 580.402344 C 638.304688 579.988281 638.8125 579.53125 639.28125 579.039062 C 639.753906 578.542969 640.183594 578.015625 640.574219 577.457031 C 640.964844 576.898438 641.3125 576.3125 641.613281 575.699219 C 641.914062 575.085938 642.167969 574.457031 642.371094 573.804688 C 642.578125 573.152344 642.730469 572.492188 642.835938 571.816406 C 642.9375 571.140625 642.992188 570.464844 642.992188 569.78125 L 642.992188 415.824219 L 701.367188 394.308594 C 701.835938 394.136719 702.289062 393.9375 702.734375 393.714844 C 703.179688 393.492188 703.609375 393.246094 704.027344 392.976562 C 704.441406 392.703125 704.84375 392.410156 705.226562 392.097656 C 705.613281 391.78125 705.976562 391.445312 706.324219 391.089844 C 706.671875 390.734375 706.996094 390.359375 707.304688 389.96875 C 707.609375 389.578125 707.890625 389.167969 708.152344 388.746094 C 708.414062 388.324219 708.648438 387.886719 708.859375 387.4375 C 709.074219 386.988281 709.257812 386.527344 709.417969 386.058594 C 709.582031 385.585938 709.714844 385.109375 709.824219 384.625 C 709.929688 384.140625 710.011719 383.648438 710.066406 383.15625 C 710.117188 382.664062 710.144531 382.167969 710.144531 381.667969 C 710.140625 381.171875 710.113281 380.675781 710.058594 380.183594 C 710 379.691406 709.917969 379.199219 709.804688 378.714844 C 709.695312 378.230469 709.558594 377.753906 709.394531 377.285156 C 709.230469 376.816406 709.042969 376.359375 708.828125 375.910156 C 708.613281 375.460938 708.375 375.027344 708.113281 374.605469 L 642.78125 270.050781 C 642.441406 269.066406 641.992188 268.132812 641.433594 267.253906 C 640.878906 266.375 640.226562 265.570312 639.480469 264.839844 C 638.738281 264.113281 637.917969 263.480469 637.027344 262.941406 C 636.136719 262.402344 635.195312 261.972656 634.203125 261.65625 C 634.027344 261.589844 633.855469 261.527344 633.679688 261.472656 L 553.601562 231.953125 C 551.90625 231.300781 550.148438 231.003906 548.328125 231.0625 C 547.554688 231.089844 546.789062 231.1875 546.03125 231.347656 C 545.273438 231.507812 544.535156 231.734375 543.816406 232.023438 C 543.097656 232.3125 542.40625 232.660156 541.75 233.070312 C 541.089844 233.476562 540.472656 233.941406 539.894531 234.457031 C 539.3125 234.96875 538.785156 235.53125 538.300781 236.140625 C 537.820312 236.746094 537.394531 237.390625 537.023438 238.070312 C 536.65625 238.75 536.34375 239.460938 536.097656 240.195312 C 535.851562 240.929688 535.667969 241.679688 535.550781 242.445312 C 535.429688 243.210938 535.378906 243.980469 535.394531 244.753906 C 535.410156 245.53125 535.492188 246.296875 535.640625 247.058594 C 535.789062 247.820312 536.003906 248.5625 536.277344 249.285156 C 536.554688 250.007812 536.890625 250.703125 537.289062 251.371094 C 537.6875 252.035156 538.136719 252.660156 538.644531 253.25 C 539.148438 253.835938 539.699219 254.375 540.296875 254.867188 C 540.898438 255.359375 541.535156 255.796875 542.207031 256.179688 C 542.882812 256.5625 543.585938 256.882812 544.316406 257.140625 L 590.726562 274.25 L 374.328125 353.980469 L 157.925781 274.25 L 204.335938 257.140625 C 205.078125 256.878906 205.792969 256.558594 206.476562 256.171875 C 207.160156 255.785156 207.804688 255.339844 208.414062 254.84375 C 209.019531 254.34375 209.578125 253.792969 210.089844 253.195312 C 210.597656 252.597656 211.054688 251.960938 211.453125 251.285156 C 211.851562 250.605469 212.1875 249.898438 212.460938 249.164062 C 212.734375 248.425781 212.945312 247.671875 213.085938 246.898438 C 213.226562 246.128906 213.300781 245.347656 213.308594 244.5625 C 213.3125 243.777344 213.25 242.996094 213.117188 242.222656 C 212.984375 241.445312 212.789062 240.6875 212.523438 239.949219 C 212.257812 239.210938 211.933594 238.496094 211.542969 237.816406 C 211.152344 237.132812 210.707031 236.488281 210.207031 235.882812 C 209.703125 235.28125 209.152344 234.722656 208.550781 234.214844 C 207.953125 233.707031 207.3125 233.257812 206.632812 232.863281 C 205.953125 232.464844 205.246094 232.132812 204.507812 231.863281 C 203.769531 231.589844 203.015625 231.386719 202.242188 231.246094 C 201.46875 231.109375 200.6875 231.039062 199.902344 231.035156 Z M 124.707031 290.621094 L 354.203125 375.15625 L 354.203125 375.183594 L 301.570312 459.375 L 72.050781 374.839844 Z M 623.945312 290.621094 L 676.601562 374.839844 L 447.082031 459.375 L 394.476562 375.183594 Z M 360.894531 415.089844 L 360.894531 644.53125 L 132.527344 560.414062 L 132.527344 425.714844 L 302.515625 488.339844 C 303.234375 488.605469 303.96875 488.808594 304.722656 488.945312 C 305.476562 489.085938 306.234375 489.160156 307 489.167969 C 307.765625 489.175781 308.527344 489.121094 309.285156 489 C 310.039062 488.878906 310.78125 488.691406 311.503906 488.445312 C 312.230469 488.199219 312.925781 487.890625 313.597656 487.523438 C 314.269531 487.15625 314.90625 486.734375 315.507812 486.257812 C 316.105469 485.78125 316.660156 485.257812 317.171875 484.6875 C 317.683594 484.117188 318.140625 483.507812 318.546875 482.859375 Z M 387.757812 415.089844 L 430.105469 482.859375 C 430.511719 483.507812 430.96875 484.117188 431.480469 484.6875 C 431.992188 485.257812 432.546875 485.78125 433.144531 486.257812 C 433.746094 486.734375 434.382812 487.15625 435.054688 487.523438 C 435.726562 487.890625 436.421875 488.199219 437.148438 488.445312 C 437.871094 488.691406 438.613281 488.878906 439.367188 489 C 440.125 489.121094 440.886719 489.175781 441.652344 489.167969 C 442.417969 489.160156 443.175781 489.085938 443.929688 488.945312 C 444.683594 488.808594 445.417969 488.605469 446.136719 488.339844 L 616.125 425.714844 L 616.125 560.414062 L 387.757812 644.53125 Z M 387.757812 415.089844 " fill-opacity="1" fill-rule="nonzero"/></g></svg>